<svg width="0" height="0" class="hidden">
  <symbol version="1.1" id="list" xmlns="http://www.w3.org/2000/svg" xmlns:xlink="http://www.w3.org/1999/xlink" x="0px" y="0px" xml:space="preserve" viewBox="0 0 512 512">
    <g>
      <g>
        <path d="M113.794,108.974c-3.308-2.493-8.009-1.834-10.503,1.473l-25.797,34.209l-12.471-15.242
			c-2.623-3.206-7.349-3.677-10.553-1.055c-3.206,2.622-3.679,7.347-1.056,10.553l18.515,22.63c1.425,1.742,3.557,2.75,5.804,2.75
			c0.049,0,0.098-0.001,0.148-0.001c2.3-0.046,4.453-1.145,5.839-2.983l31.547-41.831
			C117.76,116.17,117.101,111.468,113.794,108.974z"></path>
      </g>
    </g>
    <g>
      <g>
        <path d="M113.794,199.636c-3.308-2.493-8.009-1.834-10.503,1.473l-25.797,34.209l-12.471-15.242
			c-2.623-3.207-7.349-3.678-10.553-1.056c-3.206,2.623-3.679,7.348-1.056,10.553l18.515,22.63c1.425,1.743,3.557,2.751,5.804,2.751
			c0.049,0,0.098-0.001,0.148-0.002c2.3-0.046,4.453-1.145,5.839-2.983l31.547-41.83C117.76,206.832,117.101,202.13,113.794,199.636
			z"></path>
      </g>
    </g>
    <g>
      <g>
        <path d="M113.794,290.296c-3.308-2.493-8.009-1.834-10.503,1.473l-25.797,34.21l-12.471-15.242
			c-2.623-3.207-7.349-3.678-10.553-1.056c-3.206,2.623-3.679,7.348-1.056,10.553l18.515,22.63c1.425,1.743,3.557,2.751,5.804,2.751
			c0.049,0,0.098,0,0.148-0.001c2.3-0.046,4.453-1.145,5.839-2.983l31.547-41.832C117.76,297.492,117.101,292.79,113.794,290.296z"></path>
      </g>
    </g>
    <g>
      <g>
        <path d="M338.195,145.01h-162.32c-4.142,0-7.499,3.358-7.499,7.499s3.357,7.499,7.499,7.499h162.32
			c4.142,0,7.499-3.358,7.499-7.499C345.694,148.367,342.337,145.01,338.195,145.01z"></path>
      </g>
    </g>
    <g>
      <g>
        <path d="M338.195,205.338h-162.32c-4.142,0-7.499,3.358-7.499,7.499s3.357,7.499,7.499,7.499h162.32
			c4.142,0,7.499-3.358,7.499-7.499S342.337,205.338,338.195,205.338z"></path>
      </g>
    </g>
    <g>
      <g>
        <path d="M338.195,235.085h-162.32c-4.142,0-7.499,3.358-7.499,7.499s3.357,7.499,7.499,7.499h162.32
			c4.142,0,7.499-3.358,7.499-7.499S342.337,235.085,338.195,235.085z"></path>
      </g>
    </g>
    <g>
      <g>
        <path d="M338.195,295.413h-162.32c-4.142,0-7.499,3.358-7.499,7.499s3.357,7.499,7.499,7.499h162.32
			c4.142,0,7.499-3.358,7.499-7.499S342.337,295.413,338.195,295.413z"></path>
      </g>
    </g>
    <g>
      <g>
        <path d="M338.195,385.488h-162.32c-4.142,0-7.499,3.358-7.499,7.499s3.357,7.499,7.499,7.499h162.32
			c4.142,0,7.499-3.358,7.499-7.499S342.337,385.488,338.195,385.488z"></path>
      </g>
    </g>
    <g>
      <g>
        <path d="M338.195,415.236h-162.32c-4.142,0-7.499,3.358-7.499,7.499s3.357,7.499,7.499,7.499h162.32
			c4.142,0,7.499-3.358,7.499-7.499S342.337,415.236,338.195,415.236z"></path>
      </g>
    </g>
    <g>
      <g>
        <path d="M368.248,24.748h-26.693V7.499c0-4.142-3.357-7.499-7.499-7.499c-4.142,0-7.499,3.358-7.499,7.499v17.248h-28.83V7.499
			c0-4.142-3.357-7.499-7.499-7.499c-4.142,0-7.499,3.358-7.499,7.499v17.248h-28.831V7.499c0-4.142-3.357-7.499-7.499-7.499
			c-4.142,0-7.499,3.358-7.499,7.499v17.248h-28.831V7.499c0-4.142-3.357-7.499-7.499-7.499c-4.142,0-7.499,3.358-7.499,7.499
			v17.248H166.24V7.499c0-4.142-3.357-7.499-7.499-7.499c-4.142,0-7.499,3.358-7.499,7.499v17.248h-28.831V7.499
			c0-4.142-3.357-7.499-7.499-7.499c-4.142,0-7.499,3.358-7.499,7.499v17.248H78.579V7.499C78.579,3.358,75.222,0,71.08,0
			c-4.142,0-7.499,3.358-7.499,7.499v17.248H36.889c-10.288,0-18.659,8.37-18.659,18.659v449.935C18.23,503.63,26.6,512,36.889,512
			h331.359c10.288,0,18.659-8.37,18.659-18.659V43.406C386.906,33.118,378.536,24.748,368.248,24.748z M368.248,497.001H36.889
			c-2.018,0-3.66-1.642-3.66-3.66V43.406c0-2.018,1.641-3.66,3.66-3.66h26.692v17.249c0,4.142,3.357,7.499,7.499,7.499
			c4.142,0,7.499-3.358,7.499-7.499V39.747h28.831v17.249c0,4.142,3.357,7.499,7.499,7.499c4.142,0,7.499-3.358,7.499-7.499V39.747
			h28.831v17.249c0,4.142,3.357,7.499,7.499,7.499c4.142,0,7.499-3.358,7.499-7.499V39.747h28.831v17.249
			c0,4.142,3.357,7.499,7.499,7.499c4.142,0,7.499-3.358,7.499-7.499V39.747h28.831v17.249c0,4.142,3.357,7.499,7.499,7.499
			c4.142,0,7.499-3.358,7.499-7.499V39.747h28.831v17.249c0,4.142,3.357,7.499,7.499,7.499c4.142,0,7.499-3.358,7.499-7.499V39.747
			h28.83v17.249c0,4.142,3.357,7.499,7.499,7.499c4.142,0,7.499-3.358,7.499-7.499V39.747h26.693c2.018,0,3.66,1.642,3.66,3.66
			v449.934h0.003C371.908,495.359,370.267,497.001,368.248,497.001z"></path>
      </g>
    </g>
    <g>
      <g>
        <path d="M475.98,29.497h-34.492c-9.809,0-17.79,7.98-17.79,17.79v383.108c0,0.019,0,0.039,0,0.058v1.346l25.642,68.954
			c1.474,3.966,5.161,6.53,9.393,6.531c0,0,0.001,0,0.002,0c4.231,0,7.918-2.563,9.394-6.53l25.641-68.955v-1.346
			c0-0.019,0-0.039,0-0.058V47.287C493.77,37.478,485.789,29.497,475.98,29.497z M458.735,482.985l-18.083-48.626
			c11.656-4.462,24.509-4.462,36.164,0L458.735,482.985z M478.771,419.149c-13.039-4.19-27.034-4.19-40.074,0V111.577h40.074
			V419.149z M478.771,96.578h-40.074V47.287c0-1.539,1.252-2.791,2.791-2.791h34.492c1.539,0,2.791,1.252,2.791,2.791V96.578z"></path>
      </g>
    </g>
    <g>
      <g>
        <path d="M338.195,114.928H230.652c-4.142,0-7.499,3.358-7.499,7.499s3.357,7.499,7.499,7.499h107.543
			c4.142,0,7.499-3.358,7.499-7.499S342.338,114.928,338.195,114.928z"></path>
      </g>
    </g>
    <g>
      <g>
        <path d="M195.759,114.929h-19.883c-4.142,0-7.499,3.358-7.499,7.499s3.356,7.499,7.499,7.499h19.883
			c4.142,0,7.499-3.358,7.499-7.499S199.901,114.929,195.759,114.929z"></path>
      </g>
    </g>
    <g>
      <g>
        <path d="M338.195,325.161h-19.884c-4.142,0-7.499,3.358-7.499,7.499s3.357,7.499,7.499,7.499h19.884
			c4.142,0,7.499-3.358,7.499-7.499S342.338,325.161,338.195,325.161z"></path>
      </g>
    </g>
    <g>
      <g>
        <path d="M283.418,325.161H175.876c-4.142,0-7.499,3.358-7.499,7.499s3.357,7.499,7.499,7.499h107.542
			c4.142,0,7.499-3.358,7.499-7.499S287.56,325.161,283.418,325.161z"></path>
      </g>
    </g>
    <g></g>
    <g></g>
    <g></g>
    <g></g>
    <g></g>
    <g></g>
    <g></g>
    <g></g>
    <g></g>
    <g></g>
    <g></g>
    <g></g>
    <g></g>
    <g></g>
    <g></g>
  </symbol>
   <symbol id="logout" enable-background="new 0 0 24 24" xmlns="http://www.w3.org/2000/svg" viewBox="0 0 24 24">
    <g>
      <path d="m21.5 24h-11c-1.378 0-2.5-1.122-2.5-2.5v-5c0-.276.224-.5.5-.5s.5.224.5.5v5c0 .827.673 1.5 1.5 1.5h11c.827 0 1.5-.673 1.5-1.5v-19c0-.827-.673-1.5-1.5-1.5h-11c-.827 0-1.5.673-1.5 1.5v5c0 .276-.224.5-.5.5s-.5-.224-.5-.5v-5c0-1.378 1.122-2.5 2.5-2.5h11c1.378 0 2.5 1.122 2.5 2.5v19c0 1.378-1.122 2.5-2.5 2.5z"></path>
    </g>
    <g>
      <path d="m15.5 12.5h-15c-.276 0-.5-.224-.5-.5s.224-.5.5-.5h15c.276 0 .5.224.5.5s-.224.5-.5.5z"></path>
    </g>
    <g>
      <path d="m11.5 16.5c-.128 0-.256-.049-.354-.146-.195-.195-.195-.512 0-.707l3.647-3.647-3.646-3.646c-.195-.195-.195-.512 0-.707s.512-.195.707 0l4 4c.195.195.195.512 0 .707l-4 4c-.098.097-.226.146-.354.146z"></path>
    </g>
  </symbol>
  <symbol id="xls" enable-background="new 0 0 512 512" xmlns="http://www.w3.org/2000/svg" viewBox="0 0 512 512">
    <g>
      <path d="m481.059 77.662-70.772-70.77c-4.445-4.444-10.354-6.892-16.64-6.892h-297.97c-12.975 0-23.532 10.557-23.532 23.532v232.984h-16.548c-17.396 0-31.548 14.153-31.548 31.548v144.29c0 17.396 14.152 31.549 31.548 31.549h248.5c12.976 0 23.532-10.557 23.532-23.532v-112.225c0-12.976-10.557-23.533-23.532-23.533h-248.5c-9.125 0-16.548-7.423-16.548-16.548s7.423-16.548 16.548-16.548h16.548v8.535c0 4.142 3.358 7.5 7.5 7.5s7.5-3.358 7.5-7.5v-256.52c0-4.705 3.828-8.532 8.532-8.532h289.097v72.661c0 8.556 6.96 15.517 15.516 15.517h72.661v385.29c0 4.705-3.828 8.532-8.532 8.532h-368.742c-4.705 0-8.532-3.827-8.532-8.532 0-4.142-3.358-7.5-7.5-7.5s-7.5 3.358-7.5 7.5c0 12.976 10.557 23.532 23.532 23.532h368.742c12.976 0 23.532-10.557 23.532-23.532v-394.166c.001-6.285-2.447-12.195-6.892-16.64zm-425.462 241.951h248.5c4.705 0 8.532 3.828 8.532 8.533v112.226c0 4.705-3.828 8.532-8.532 8.532h-248.5c-9.125 0-16.548-7.424-16.548-16.549v-117.44c4.813 2.979 10.483 4.698 16.548 4.698zm344.177-231.952v-70.068l70.587 70.585h-70.071c-.284 0-.516-.232-.516-.517z"></path>
      <path d="m167.837 423.66c.535.092.969.166 8.14.166 3.461 0 8.492-.017 15.859-.059 4.142-.022 7.481-3.399 7.458-7.542s-3.419-7.445-7.542-7.458c-5.238.029-10.862.05-15.148.054v-57.297c0-4.142-3.358-7.5-7.5-7.5s-7.5 3.358-7.5 7.5v64.743c0 3.654 2.632 6.776 6.233 7.393z"></path>
      <path d="m243.934 423.822c13.365 0 24.583-8.506 26.676-20.225 1.57-8.796-2.453-20.297-18.454-26.199-8.059-2.973-15.555-6.212-17.749-7.174-2.068-1.608-2.001-3.879-1.867-4.819.181-1.258 1.085-4.328 5.575-5.681 9.448-2.847 18.143 4.038 18.384 4.232 3.17 2.633 7.877 2.215 10.532-.944 2.665-3.171 2.255-7.902-.916-10.567-.601-.505-14.93-12.323-32.327-7.083-8.719 2.626-14.887 9.49-16.096 17.911-1.132 7.888 2.286 15.475 8.92 19.8.332.216.679.406 1.041.567.375.167 9.28 4.131 19.311 7.831 2.982 1.1 9.818 4.227 8.878 9.489-.69 3.864-5.333 7.861-11.91 7.861-6.606 0-12.97-2.669-17.022-7.141-2.781-3.069-7.524-3.303-10.594-.521-3.069 2.781-3.303 7.524-.521 10.594 6.85 7.558 17.368 12.069 28.139 12.069z"></path>
      <path d="m83.18 422.454c1.313.925 2.82 1.369 4.313 1.369 2.357 0 4.677-1.108 6.138-3.182l18.309-25.99 18.281 25.986c1.46 2.076 3.782 3.186 6.141 3.186 1.491 0 2.997-.443 4.309-1.366 3.388-2.384 4.202-7.062 1.819-10.45l-21.373-30.381 18.162-25.781c2.386-3.386 1.574-8.065-1.812-10.45-3.386-2.386-8.065-1.574-10.451 1.812l-15.067 21.388-15.043-21.385c-2.383-3.388-7.062-4.202-10.45-1.819s-4.202 7.062-1.819 10.449l18.135 25.779-21.404 30.383c-2.386 3.388-1.574 8.066 1.812 10.452z"></path>
      <path d="m383.742 143.774c0-8.556-6.96-15.517-15.516-15.517h-176.355c-8.556 0-15.516 6.961-15.516 15.517v104.209c0 8.556 6.96 15.516 15.516 15.516h176.354c8.556 0 15.516-6.96 15.516-15.516v-104.209zm-128.258 64.645v-25.081h49.129v25.081zm49.129 15v25.081h-49.129v-25.081zm-113.258-40.08h49.129v25.081h-49.129zm64.129-15v-25.081h49.129v25.081zm64.129 15h49.129v25.081h-49.129zm49.129-39.565v24.564h-49.129v-25.081h48.613c.284.001.516.232.516.517zm-176.871-.516h48.613v25.081h-49.129v-24.564c0-.286.231-.517.516-.517zm-.516 104.726v-24.564h49.129v25.08h-48.613c-.285 0-.516-.231-.516-.516zm176.871.516h-48.613v-25.081h49.129v24.564c0 .286-.232.517-.516.517z"></path>
    </g>
  </symbol>
   <symbol id="download" enable-background="new 0 0 24 24" xmlns="http://www.w3.org/2000/svg" viewBox="0 0 24 24">
    <g>
      <path d="m12 17c-.276 0-.5-.224-.5-.5v-16c0-.276.224-.5.5-.5s.5.224.5.5v16c0 .276-.224.5-.5.5z"></path>
    </g>
    <g>
      <path d="m12 17c-.128 0-.256-.049-.354-.146l-4-4c-.195-.195-.195-.512 0-.707s.512-.195.707 0l3.647 3.646 3.646-3.646c.195-.195.512-.195.707 0s.195.512 0 .707l-4 4c-.097.097-.225.146-.353.146z"></path>
    </g>
    <g>
      <path d="m21.5 24h-19c-1.379 0-2.5-1.122-2.5-2.5v-5c0-.276.224-.5.5-.5s.5.224.5.5v5c0 .827.673 1.5 1.5 1.5h19c.827 0 1.5-.673 1.5-1.5v-5c0-.276.224-.5.5-.5s.5.224.5.5v5c0 1.378-1.121 2.5-2.5 2.5z"></path>
    </g>
  </symbol>
</svg>